<!-- vegetables-icon.svg -->
<svg xmlns="http://www.w3.org/2000/svg" width="32" height="32" viewBox="0 0 32 32" fill="none" stroke="#F59E0B" stroke-width="2" stroke-linecap="round" stroke-linejoin="round">
  <path d="M16 4C16 4 10 10 10 16C10 22 16 28 16 28C16 28 22 22 22 16C22 10 16 4 16 4Z"/>
  <path d="M16 18C17.1046 18 18 17.1046 18 16C18 14.8954 17.1046 14 16 14C14.8954 14 14 14.8954 14 16C14 17.1046 14.8954 18 16 18Z"/>
  <path d="M8 9L24 9"/>
  <path d="M8 23L24 23"/>
  <path d="M8 16L12 16"/>
  <path d="M20 16L24 16"/>
</svg>
